<?xml version="1.0" standalone="no"?>
<!DOCTYPE svg PUBLIC "-//W3C//DTD SVG 1.1//EN" "http://www.w3.org/Graphics/SVG/1.1/DTD/svg11.dtd" >
<svg xmlns="http://www.w3.org/2000/svg">
<metadata>Generated by IcoMoon</metadata>
<defs>
<font id="icomoon" horiz-adv-x="1024">
<font-face units-per-em="1024" ascent="960" descent="-64" />
<missing-glyph horiz-adv-x="1024" />
<glyph unicode="&#x20;" horiz-adv-x="512" d="" />
<glyph unicode="&#xe900;" glyph-name="bag" d="M984 256c22.092 0 40 17.908 40 40v360c0 22.092-17.908 40-40 40h-252v44c0 121.308-98.692 220-220 220s-220-98.692-220-220v-44h-252c-22.092 0-40-17.908-40-40v-560c0-88.224 71.776-160 160-160h704c88.224 0 160 71.776 160 160 0 22.092-17.908 40-40 40s-40-17.908-40-40c0-44.112-35.888-80-80-80h-704c-44.112 0-80 35.888-80 80v520h212v-150c0-22.092 17.908-40 40-40s40 17.908 40 40v274c0 77.196 62.802 140 140 140s140-62.804 140-140v-44h-160c-22.092 0-40-17.908-40-40s17.908-40 40-40h160v-150c0-22.092 17.908-40 40-40s40 17.908 40 40v150h212v-320c0-22.092 17.908-40 40-40z" />
<glyph unicode="&#xe901;" glyph-name="heart" d="M512-7.031c-14.578 0-28.633 5.281-39.586 14.875-41.367 36.172-81.25 70.164-116.438 100.148l-0.18 0.156c-103.164 87.914-192.25 163.836-254.234 238.625-69.289 83.609-101.563 162.883-101.563 249.484 0 84.141 28.852 161.766 81.234 218.586 53.008 57.492 125.742 89.156 204.828 89.156 59.109 0 113.242-18.688 160.891-55.539 24.047-18.602 45.844-41.367 65.047-67.922 19.211 26.555 41 49.32 65.055 67.922 47.648 36.852 101.781 55.539 160.891 55.539 79.078 0 151.82-31.664 204.828-89.156 52.383-56.82 81.227-134.445 81.227-218.586 0-86.602-32.266-165.875-101.555-249.477-61.984-74.797-151.063-150.711-254.211-238.617-35.25-30.031-75.195-64.078-116.656-100.336-10.945-9.578-25.008-14.859-39.578-14.859zM286.063 844.016c-62.133 0-119.211-24.797-160.734-69.828-42.141-45.711-65.352-108.898-65.352-177.93 0-72.836 27.070-137.977 87.766-211.211 58.664-70.789 145.922-145.148 246.953-231.25l0.188-0.156c35.32-30.102 75.359-64.227 117.031-100.664 41.922 36.508 82.023 70.688 117.414 100.836 101.023 86.102 188.273 160.445 246.938 231.234 60.688 73.234 87.758 138.375 87.758 211.211 0 69.031-23.211 132.219-65.352 177.93-41.516 45.031-98.602 69.828-160.727 69.828-45.516 0-87.305-14.469-124.203-43-32.883-25.438-55.789-57.594-69.219-80.094-6.906-11.57-19.063-18.477-32.523-18.477s-25.617 6.906-32.523 18.477c-13.422 22.5-36.328 54.656-69.219 80.094-36.898 28.531-78.688 43-124.195 43z" />
<glyph unicode="&#xe902;" glyph-name="logout" d="M990.611 414.609h-645.571c-18.432 0-33.391 14.959-33.391 33.391s14.959 33.391 33.391 33.391h645.571c18.432 0 33.391-14.959 33.391-33.391s-14.959-33.391-33.391-33.391zM523.133 236.524c-8.552 0-17.095 3.245-23.601 9.791l-178.084 178.084c-13.043 13.052-13.043 34.198 0 47.242l178.084 178.084c13.043 13.043 34.19 13.043 47.242 0 13.043-13.043 13.043-34.19 0-47.234l-154.492-154.492 154.492-154.492c13.043-13.043 13.043-34.19 0-47.234-6.546-6.505-15.098-9.75-23.641-9.75zM489.742-41.742c-270.024 0-489.742 219.717-489.742 489.742s219.717 489.742 489.742 489.742c202.614 0 381.505-121.899 455.812-310.59 6.766-17.136-1.696-36.505-18.832-43.312-17.144-6.685-36.514 1.647-43.321 18.872-64.158 162.954-218.69 268.247-393.66 268.247-233.209 0-422.959-189.758-422.959-422.959s189.75-422.959 422.959-422.959c174.97 0 329.503 105.293 393.66 268.198 6.766 17.234 26.136 25.557 43.321 18.88 17.136-6.766 25.598-26.177 18.832-43.321-74.307-188.641-253.198-310.541-455.812-310.541z" />
<glyph unicode="&#xe903;" glyph-name="login" d="M678.954 414.609h-645.562c-18.432 0-33.391 14.959-33.391 33.391s14.959 33.391 33.391 33.391h645.562c18.432 0 33.391-14.959 33.391-33.391s-14.959-33.391-33.391-33.391zM500.87 236.524c-8.552 0-17.095 3.245-23.601 9.791-13.043 13.043-13.043 34.19 0 47.242l154.492 154.484-154.492 154.492c-13.043 13.043-13.043 34.198 0 47.242 13.052 13.043 34.198 13.043 47.242 0l178.084-178.092c13.043-13.043 13.043-34.19 0-47.234l-178.084-178.084c-6.546-6.595-15.090-9.84-23.641-9.84zM534.261-41.742c-202.622 0-381.505 121.899-455.812 310.59-6.766 17.095 1.688 36.505 18.832 43.272 17.095 6.677 36.554-1.647 43.321-18.88 64.158-162.905 218.69-268.198 393.66-268.198 233.201 0 422.959 189.758 422.959 422.959s-189.758 422.959-422.959 422.959c-174.97 0-329.503-105.293-393.66-268.198-6.815-17.234-26.226-25.557-43.321-18.88-17.144 6.766-25.598 26.177-18.832 43.272 74.307 188.69 253.19 310.59 455.812 310.59 270.024 0 489.742-219.717 489.742-489.742s-219.717-489.742-489.742-489.742z" />
<glyph unicode="&#xe904;" glyph-name="mail" d="M987.428 813.714h-950.856c-20.199 0-36.572-16.374-36.572-36.57v-658.285c0-20.199 16.374-36.572 36.572-36.572h950.856c20.199 0 36.572 16.374 36.572 36.572v658.285c0 20.196-16.374 36.57-36.572 36.57zM927.451 740.572l-415.453-319.562-415.45 319.562h830.903zM950.856 155.428h-877.714v510.868l416.586-320.438c13.136-10.086 31.408-10.086 44.544 0l416.584 320.438v-510.868z" />
<glyph unicode="&#xe905;" glyph-name="random" d="M406.382 282.313l31.341 50.563c7.522 12.118 3.761 27.789-8.357 35.31-11.909 7.522-27.789 3.761-35.31-8.357l-31.341-50.563c-56.831-91.723-137.898-144.375-222.727-144.375h-114.497c-14.208 0-25.49-11.492-25.49-25.699s11.492-25.699 25.49-25.699h114.706c103.006 0.418 199.953 61.845 266.186 168.821zM1016.269 774.568l-124.109 124.317c-10.029 10.029-26.117 10.029-36.146 0s-10.029-26.117 0-36.146l80.65-80.65c-0.209 0-0.209 0-0.418 0h-118.467c-102.797 0-199.953-61.427-266.186-168.403l-19.222-31.132c-7.522-12.118-3.761-27.789 8.357-35.31 4.179-2.507 8.775-3.761 13.372-3.761 8.566 0 16.924 4.388 21.729 12.118l19.222 31.132c56.831 91.723 137.898 144.166 222.727 144.166h118.258c0.209 0 0.209 0 0.418 0l-80.65-80.65c-10.029-10.029-10.029-26.117 0-36.146 5.014-5.014 11.492-7.522 18.178-7.522s13.163 2.507 18.178 7.522l124.317 124.317c9.82 10.029 9.82 26.326-0.209 36.146zM961.737 756.182c0 0.209 0 0.209 0 0.418s0 0.209 0 0.418l0.418-0.418-0.418-0.418zM855.806-2.886c5.014-5.014 11.492-7.522 18.178-7.522s13.163 2.507 18.178 7.522l124.317 124.317c10.029 10.029 10.029 26.117 0 36.146l-124.317 124.109c-10.029 10.029-26.117 10.029-36.146 0s-10.029-26.117 0-36.146l80.65-80.65c-0.209 0-0.209 0-0.418 0h-114.706c-84.619 0-165.896 52.652-222.727 144.375l-188.461 304.421c-66.233 107.185-163.389 168.403-266.186 168.403h-118.676c-14.208 0-25.49-11.492-25.49-25.699s11.492-25.699 25.49-25.699h118.467c84.619 0 165.896-52.652 222.727-144.166l188.461-304.421c66.233-107.185 163.389-168.612 266.186-168.612h114.706c0.209 0 0.209 0 0.418 0l-80.65-80.65c-9.82-9.611-9.82-25.699 0-35.728zM961.737 139.818l0.418-0.418-0.418-0.418c0 0.209 0 0.209 0 0.418s0 0.209 0 0.418z" />
<glyph unicode="&#xe906;" glyph-name="telephone" d="M997.656 204.733l-127.298 127.298c-35.096 35.094-92.204 35.094-127.298 0l-57.862-57.862c-26.588-26.588-69.852-26.58-96.43-0.010l-250.8 251.014c-26.65 26.65-26.654 69.784 0 96.438 9.32 9.32 36.082 36.082 57.862 57.862 34.942 34.94 35.43 91.87-0.034 127.33l-127.264 126.864c-35.096 35.094-92.202 35.094-127.204 0.092-26.192-25.964-34.64-34.34-46.384-45.982-126.56-126.558-126.56-332.485-0.006-459.039l397.385-397.593c126.856-126.858 332.177-126.868 459.043 0l46.292 46.29c35.096 35.096 35.096 92.2 0 127.296zM183.666 891.236c11.698 11.698 30.73 11.7 42.466-0.032l127.264-126.864c11.726-11.726 11.726-30.704 0-42.432l-21.218-21.216-169.62 169.62 21.108 20.924zM534.761 73.572l-397.387 397.597c-97.916 97.916-103.298 251.666-16.552 356.013l169.128-169.128c-44.44-50.378-42.588-127.144 5.574-175.306l250.792-251.002c0.002-0.002 0.006-0.006 0.008-0.008 48.11-48.112 124.872-50.084 175.312-5.584l169.132-169.132c-104.014-86.596-257.419-82.038-356.009 16.552zM955.226 119.868l-21.218-21.218-169.73 169.732 21.214 21.216c11.7 11.698 30.734 11.7 42.434 0l127.298-127.298c11.7-11.7 11.7-30.736 0.002-42.432z" />
<glyph unicode="&#xe907;" glyph-name="search" d="M1017.75 2.582l-297.465 297.465c56.42 69.654 90.382 158.206 90.382 254.618 0 223.5-181.834 405.335-405.335 405.335s-405.333-181.834-405.333-405.335 181.834-405.335 405.335-405.335c96.412 0 184.964 33.964 254.618 90.382l297.465-297.465c8.334-8.33 21.838-8.33 30.172 0l30.162 30.164c8.33 8.332 8.33 21.84-0.002 30.17zM405.335 234.665c-176.458 0-320.001 143.542-320.001 320.001s143.542 320.001 320.001 320.001 320.001-143.542 320.001-320.001-143.542-320.001-320.001-320.001z" />
<glyph unicode="&#xe908;" glyph-name="chat" d="M795.57 874.328c-107.62 71.533-236.821 99.6-364.233 79.168-2.218-0.042-4.436-0.256-6.654-0.64-134.705-23.374-252.263-97.808-331.048-209.564-78.698-111.8-109.198-247.527-85.864-382.277 3.882-22.224 9.298-44.617 16.124-66.371 28.195-91.58 21.242-189.73-19.536-276.363-7.124-15.014-4.778-32.845 5.93-45.599 10.706-12.754 27.683-18.044 43.891-13.692l191.222 52.209c80.96-49.565 172.369-75.201 265.699-75.201 33.911 0 68.077 3.37 102.074 10.238 134.065 27.001 249.575 104.548 325.246 218.394 156.247 235.029 92.178 553.365-142.851 709.696zM867.401 211.851c-63.087-94.908-159.359-159.531-271.031-182.010-111.586-22.48-225.39-0.128-320.34 63.001-7.080 4.692-15.314 7.124-23.632 7.124-3.754 0-7.55-0.512-11.262-1.536l-130.183-35.531c21.968 83.86 20.346 172.669-5.588 257.083-5.758 18.384-10.322 37.109-13.522 55.623-19.452 112.268 5.972 225.39 71.575 318.55 64.495 91.58 160.255 153.047 270.179 173.565 2.048 0.086 4.052 0.298 6.1 0.64 107.876 18.64 217.498-4.522 308.696-65.135 195.872-130.227 249.233-395.5 119.008-591.372zM512.168 708.187c-23.588 0-42.655-19.068-42.655-42.655v-255.931c0-23.588 19.068-42.655 42.655-42.655s42.655 19.11 42.655 42.655v255.931c0 23.588-19.066 42.655-42.655 42.655zM551.369 250.966c-2.132 5.546-5.118 10.238-8.958 14.076-2.132 1.706-4.266 3.84-6.824 5.118-2.132 1.706-4.692 2.944-7.252 3.84-2.56 1.322-5.118 2.132-8.104 2.56-13.608 2.986-28.579-1.748-38.347-11.518-3.84-3.838-6.824-8.532-8.958-14.076-2.132-5.118-3.412-10.664-3.412-16.21s1.28-11.090 3.412-16.21c2.132-5.118 5.118-9.81 8.958-14.076 4.266-3.838 8.958-6.824 14.076-8.958 5.118-2.132 10.664-3.412 16.21-3.412s11.048 1.28 16.166 3.412c5.118 2.132 9.768 5.118 14.076 8.958 3.84 4.266 6.824 8.958 8.958 14.076 2.132 5.118 3.412 10.664 3.412 16.21s-1.28 11.092-3.412 16.21z" />
<glyph unicode="&#xe909;" glyph-name="newsletter" d="M1024 553.88v0.090c0 0.854-0.048 1.7-0.118 2.542-0.020 0.23-0.050 0.458-0.074 0.688-0.072 0.66-0.164 1.314-0.278 1.962-0.042 0.244-0.084 0.488-0.132 0.73-0.16 0.79-0.342 1.574-0.564 2.344-0.022 0.076-0.040 0.154-0.062 0.23-0.234 0.788-0.506 1.562-0.802 2.326-0.112 0.292-0.236 0.578-0.358 0.868-0.218 0.516-0.452 1.026-0.7 1.528-0.144 0.292-0.282 0.586-0.434 0.874-0.374 0.702-0.772 1.39-1.2 2.062-0.16 0.25-0.336 0.49-0.504 0.736-0.334 0.49-0.68 0.97-1.042 1.438-0.194 0.25-0.388 0.498-0.59 0.744-0.526 0.638-1.070 1.262-1.65 1.856-0.046 0.046-0.090 0.094-0.136 0.14-0.62 0.63-1.28 1.224-1.958 1.8-0.084 0.072-0.156 0.152-0.242 0.222l-51.156 42.45v130.458c0 38.598-31.402 70-70 70h-171.552l-138.2 114.69c-40.708 33.776-99.792 33.776-140.496 0l-138.2-114.688h-171.552c-38.598 0-70-31.402-70-70v-130.458l-51.158-42.456c-0.084-0.070-0.158-0.15-0.242-0.222-0.678-0.576-1.338-1.17-1.958-1.8-0.046-0.046-0.090-0.094-0.136-0.14-0.578-0.594-1.124-1.218-1.65-1.856-0.202-0.244-0.396-0.494-0.59-0.744-0.362-0.47-0.708-0.95-1.042-1.438-0.168-0.246-0.344-0.486-0.504-0.736-0.428-0.67-0.826-1.358-1.2-2.062-0.154-0.288-0.292-0.582-0.434-0.874-0.248-0.502-0.48-1.012-0.7-1.528-0.122-0.288-0.246-0.576-0.358-0.868-0.296-0.764-0.57-1.536-0.802-2.326-0.022-0.076-0.040-0.152-0.062-0.23-0.222-0.77-0.404-1.554-0.564-2.344-0.048-0.244-0.090-0.486-0.132-0.73-0.114-0.648-0.206-1.302-0.278-1.962-0.024-0.23-0.054-0.458-0.074-0.688-0.068-0.838-0.116-1.684-0.116-2.538v-507.96c0-31.436 13.276-59.812 34.492-79.878 0.602-0.602 1.206-1.198 1.85-1.74 19.514-17.628 45.352-28.38 73.658-28.38h804c28.308 0 54.148 10.754 73.664 28.386 0.638 0.54 1.238 1.13 1.836 1.728 21.22 20.066 34.5 48.446 34.5 79.886v507.852c0 0.004 0 0.010 0 0.016zM132 759.97h760c5.514 0 10-4.486 10-10v-233.364l-358.068-297.154c-18.502-15.354-45.362-15.352-63.864 0l-358.068 297.154v233.364c0 5.514 4.486 10 10 10zM60 46.010v444.080l12.904-10.71c0.008-0.006 0.016-0.014 0.024-0.020l292.938-243.102-302.794-207.504c-1.986 5.38-3.072 11.194-3.072 17.256zM413.874 196.418l27.878-23.136c40.704-33.78 99.792-33.778 140.496 0l27.878 23.136 292.44-200.408h-781.134zM658.134 236.256l292.936 243.104c0.008 0.006 0.016 0.014 0.024 0.020l12.904 10.71v-444.080c0-6.062-1.086-11.876-3.072-17.256zM480.068 888.484c18.502 15.354 45.362 15.354 63.864 0l82.562-68.516h-228.988zM263 630.010c0-16.568 13.432-30 30-30h284c16.568 0 30 13.432 30 30s-13.432 30-30 30h-284c-16.568 0-30-13.432-30-30zM293 480.010h438c13.976 0 25.686 9.572 29.018 22.508 0.618 2.4 0.982 4.9 0.982 7.492 0 16.568-13.432 30-30 30h-438c-16.568 0-30-13.432-30-30 0-2.592 0.364-5.094 0.982-7.492 3.332-12.938 15.042-22.508 29.018-22.508z" />
<glyph unicode="&#xe90a;" glyph-name="sale" d="M864 704h-128v32c0 123.514-100.486 224-224 224s-224-100.486-224-224v-32h-128c-17.674 0-32-14.328-32-32v-640c0-52.934 43.066-96 96-96h576c52.934 0 96 43.066 96 96v640c0 17.672-14.326 32-32 32zM352 736c0 88.224 71.776 160 160 160s160-71.776 160-160v-32h-320zM832 32c0-17.644-14.356-32-32-32h-576c-17.644 0-32 14.356-32 32v608h96v-64c0-17.672 14.326-32 32-32s32 14.328 32 32v64h320v-64c0-17.672 14.326-32 32-32s32 14.328 32 32v64h96zM643.646 457.26c-13.948 10.848-34.052 8.334-44.906-5.614l-224-288c-16.456-21.16-1.038-51.648 25.238-51.648 9.536 0 18.972 4.246 25.282 12.356l224 288c10.85 13.95 8.336 34.056-5.614 44.906zM688 176c0-35.346-28.654-64-64-64s-64 28.654-64 64c0 35.346 28.654 64 64 64s64-28.654 64-64zM464 400c0-35.346-28.654-64-64-64s-64 28.654-64 64c0 35.346 28.654 64 64 64s64-28.654 64-64z" />
<glyph unicode="&#xe90b;" glyph-name="headset" d="M332 366h-80c-66.168 0-120-53.832-120-120v-160c0-66.168 53.832-120 120-120h80c22.092 0 40 17.908 40 40v320c0 22.092-17.908 40-40 40zM292 46h-40c-22.056 0-40 17.944-40 40v160c0 22.056 17.944 40 40 40h40v-240zM772 366h-80c-22.092 0-40-17.908-40-40v-320c0-22.092 17.908-40 40-40h80c66.168 0 120 53.832 120 120v160c0 66.168-53.832 120-120 120zM812 86c0-22.056-17.944-40-40-40h-40v240h40c22.056 0 40-17.944 40-40v-160zM512 930c-283.006 0-512-229.032-512-512v-252c0-22.092 17.908-40 40-40s40 17.908 40 40v252c0 238.786 193.246 432 432 432 238.786 0 432-193.246 432-432v-252c0-22.092 17.908-40 40-40s40 17.908 40 40v252c0 283.006-229.032 512-512 512z" />
<glyph unicode="&#xe90c;" glyph-name="mail1" d="M1022.656 586.125c-0.667 2.688-1.563 5.271-2.688 7.719-0.427 0.917-0.937 1.75-1.427 2.625-1.052 1.896-2.219 3.729-3.542 5.438-0.687 0.875-1.365 1.729-2.094 2.542-1.531 1.708-3.219 3.24-4.99 4.677-0.531 0.417-0.917 0.979-1.479 1.385l-469.333 341.333c-14.948 10.875-35.24 10.875-50.208 0l-469.333-341.333c-0.563-0.406-0.948-0.969-1.479-1.385-1.792-1.438-3.458-2.969-4.99-4.677-0.75-0.833-1.427-1.667-2.094-2.542-1.323-1.708-2.469-3.542-3.542-5.438-0.49-0.875-1-1.708-1.427-2.625-1.125-2.448-2.021-5.031-2.688-7.719-0.104-0.427-0.302-0.812-0.385-1.24-0.615-2.854-0.958-5.823-0.958-8.875v-597.333c0-23.552 19.115-42.667 42.667-42.667h128c23.552 0 42.667 19.115 42.667 42.667s-19.115 42.667-42.667 42.667h-85.333v476.927l402.969-256.406c0.49-0.344 1.042-0.677 1.552-1l344.938-219.521h-493.458c-23.552 0-42.667-19.115-42.667-42.667s19.115-42.667 42.667-42.667h639.958c0.083 0 0.167 0.042 0.25 0.042 3.25 0.021 6.385 0.469 9.438 1.177 0.875 0.208 1.708 0.531 2.552 0.792 2.271 0.677 4.437 1.49 6.531 2.531 0.958 0.469 1.896 0.979 2.844 1.542 2 1.188 3.875 2.531 5.667 4.031 0.729 0.615 1.5 1.125 2.177 1.792 2.375 2.26 4.479 4.76 6.271 7.51 0.083 0.125 0.219 0.229 0.302 0.365 0.552 0.844 0.875 1.792 1.344 2.688 0.771 1.427 1.583 2.833 2.198 4.365 0.531 1.344 0.875 2.719 1.26 4.083 0.385 1.302 0.812 2.552 1.062 3.896 0.323 1.687 0.406 3.396 0.51 5.104 0.094 0.896 0.302 1.792 0.302 2.75v597.333c0 3.052-0.344 6.021-0.958 8.875-0.083 0.427-0.281 0.813-0.385 1.24zM118.437 578.354l393.563 286.229 393.563-286.229-393.563-250.427zM938.667 498.271v-441.854l-347.177 220.927z" />
<glyph unicode="&#xe90d;" glyph-name="next" d="M689.55 797.181c-13.95 14.438-37.168 14.438-51.606 0-13.95-13.95-13.95-37.168 0-51.086l261.674-261.674h-863.49c-20.129-0.033-36.128-16.032-36.128-36.16s15.999-36.648 36.128-36.648h863.49l-261.674-261.187c-13.95-14.438-13.95-37.689 0-51.606 14.438-14.438 37.689-14.438 51.606 0l323.622 323.622c14.438 13.95 14.438 37.168 0 51.086l-323.622 323.654z" />
<glyph unicode="&#xe90e;" glyph-name="instagram" d="M746.811 960h-469.624c-152.843 0-277.187-124.344-277.187-277.187v-469.632c0-152.836 124.344-277.179 277.187-277.179h469.632c152.836 0 277.179 124.344 277.179 277.179v469.632c0 152.843-124.344 277.187-277.187 277.187zM963.967 213.181c0-119.734-97.414-217.148-217.156-217.148h-469.624c-119.742 0-217.156 97.414-217.156 217.148v469.632c0 119.742 97.414 217.156 217.156 217.156h469.632c119.734 0 217.148-97.414 217.148-217.156zM511.999 727.993c-154.39 0-279.992-125.601-279.992-279.992s125.601-279.992 279.992-279.992 279.992 125.601 279.992 279.992-125.601 279.992-279.992 279.992zM511.999 228.040c-121.281 0-219.961 98.672-219.961 219.961 0 121.281 98.68 219.961 219.961 219.961 121.289 0 219.961-98.68 219.961-219.961 0-121.289-98.672-219.961-219.961-219.961zM798.686 827.43c-45.625 0-82.734-37.117-82.734-82.734 0-45.625 37.109-82.742 82.734-82.742s82.742 37.117 82.742 82.742-37.117 82.734-82.742 82.734zM798.686 721.993c-12.516 0-22.703 10.187-22.703 22.703 0 12.523 10.187 22.703 22.703 22.703 12.523 0 22.711-10.18 22.711-22.703 0-12.516-10.187-22.703-22.711-22.703z" />
<glyph unicode="&#xe90f;" glyph-name="telephone1" d="M800.674 942.235c-13.958 13.958-32.991 17.765-68.52 17.765h-464.416c-16.496 0-30.454-6.344-41.874-17.765-10.151-10.151-17.765-25.378-17.765-41.874v-905.993c0-15.227 6.344-29.185 17.765-40.605 10.151-10.151 25.378-17.765 41.874-17.765h488.525c16.496 0 30.454 6.344 41.874 17.765 10.151 10.151 17.765 25.378 17.765 41.874v881.884c0 31.722-1.269 50.756-15.227 64.714zM255.048 901.631c0 2.538 1.269 6.344 3.807 7.613 2.538 2.538 5.076 3.807 7.613 3.807h463.147c21.571 0 31.722 0 34.26-2.538s2.538-12.689 2.538-32.991v-52.025c-7.613 2.538-13.958 5.076-22.84 5.076h-465.685c-7.613 0-15.227-2.538-22.84-5.076v76.134zM261.393 776.010c3.807 3.807 10.151 6.344 15.227 6.344h466.954c6.344 0 11.42-2.538 15.227-6.344s6.344-10.151 6.344-15.227v-596.382c0-6.344-2.538-11.42-6.344-15.227s-10.151-6.344-15.227-6.344h-465.685c-6.344 0-11.42 2.538-15.227 6.344s-6.344 10.151-6.344 15.227v596.382h-1.269c0 6.344 2.538 11.42 6.344 15.227zM767.683-4.362c0-3.807-1.269-6.344-3.807-7.613-2.538-2.538-5.076-3.807-8.882-3.807h-487.257c-3.807 0-6.344 1.269-8.882 3.807s-3.807 5.076-3.807 7.613v104.050c7.613-2.538 13.958-5.076 22.84-5.076h466.954c7.613 0 15.227 2.538 22.84 5.076v-104.050zM541.819 62.89h-60.907c-13.958 0-24.109-11.42-24.109-24.109 0-13.958 11.42-24.109 24.109-24.109h60.907c13.958 0 24.109 11.42 24.109 24.109s-11.42 24.109-24.109 24.109zM466.954 871.177c0-13.315-10.794-24.109-24.109-24.109s-24.109 10.794-24.109 24.109c0 13.315 10.794 24.109 24.109 24.109s24.109-10.794 24.109-24.109zM535.475 871.177c0-13.315-10.794-24.109-24.109-24.109s-24.109 10.794-24.109 24.109c0 13.315 10.794 24.109 24.109 24.109s24.109-10.794 24.109-24.109zM603.995 871.177c0-13.315-10.794-24.109-24.109-24.109s-24.109 10.794-24.109 24.109c0 13.315 10.794 24.109 24.109 24.109s24.109-10.794 24.109-24.109z" />
<glyph unicode="&#xe910;" glyph-name="fire" d="M817.252 401.426c-60.24 139.57-228.752 381.038-148.754 543.72 4.062 8.262-3.804 17.31-12.484 14.242-69.528-24.58-255.030-112.032-197.484-331.744 0 0-53.302 63.14-100.706 83.018-7.022 2.944-14.634-2.646-14.060-10.24 10.062-132.838-84.404-203.984-139.046-316.174-48.984-100.572-28.010-198.736 22.28-286.266 37.342-64.994 93.358-114.566 158.254-144.218-4.054 3.828-7.976 7.844-11.74 12.066-36.786 41.264-54.196 97.020-47.764 152.968 6.424 55.878 46.124 107.968 84.514 158.344 46.098 60.486 89.64 117.62 68.034 167.422-5.108 11.774-2.272 25.488 7.086 34.27 9.356 8.782 23.222 10.74 34.646 4.894 1.98-1.014 48.926-25.482 84.198-81.662 23.594-37.582 45.446-95.302 37.464-175.122 0.596 0.116 1.2 0.214 1.808 0.294 13.090 1.724 25.782-5.17 31.446-17.088 35.542-74.794 32.558-164.188-7.598-227.746-11.71-18.532-26.078-34.068-42.63-46.404 196.784 60.72 268.806 288.716 192.536 465.426zM541.546 385.916c-11.344-51.702-48.642-100.64-82.932-145.634-33.408-43.838-67.956-89.168-72.468-128.43-4.454-38.746 7.48-77.222 32.744-105.56 24.968-28.006 59.786-43.43 98.040-43.43 54.678 0 84.030 28.29 99.024 52.024 19.716 31.204 26.72 72.848 20.742 113.826-14.934-10.050-30.662-14.838-41.48-16.092-10.37-1.202-20.628 3-27.174 11.132-6.546 8.13-8.464 19.052-5.078 28.926 40.368 117.754 10.942 191.658-21.418 233.238z" />
<glyph unicode="&#xe911;" glyph-name="quote" d="M0 374.857h219.428l-146.287-292.57h219.428l146.287 292.57v438.857h-438.857zM585.143 813.713v-438.857h219.428l-146.287-292.57h219.428l146.287 292.57v438.857z" />
<glyph unicode="&#xe912;" glyph-name="inclined-slice-of-lemon" d="M849.982 951.643c-11.149 11.143-29.216 11.143-40.367 0l-801.252-801.254c-11.146-11.146-11.146-29.219 0-40.367 116.029-116.029 268.393-174.024 420.805-174.024 152.375 0 304.796 58.020 420.799 174.021 232.036 232.042 232.045 609.594 0.014 841.624zM738.282 799.579c60.224-69.172 93.324-153.928 99.301-240.205h-339.503l240.202 240.205zM837.583 502.29c-5.977-86.28-39.077-171.033-99.301-240.202l-240.202 240.202h339.503zM457.713 461.929l240.213-240.21c-67.388-58.765-151.011-93.401-240.213-99.501v339.711zM400.629 461.926v-339.711c-89.203 6.102-172.823 40.738-240.21 99.501l240.21 240.21zM809.597 150.386c-101.616-101.619-236.726-157.578-380.435-157.578-134.159 0-260.815 48.767-359.731 137.918l50.537 50.54c85.378-75.722 194.115-117.108 309.203-117.108 124.623 0 241.786 48.516 329.921 136.62 0.023 0.023 0.049 0.046 0.069 0.066 0.023 0.023 0.046 0.049 0.066 0.069 89.999 90.036 135.461 208.004 136.383 326.254 0.157 1.199 0.234 2.423 0.234 3.665 0 1.244-0.077 2.466-0.234 3.665-0.853 109.379-39.808 218.518-116.877 305.532l50.534 50.537c189.894-210.955 183.343-537.168-19.668-740.177z" />
<glyph unicode="&#xe913;" glyph-name="peanut" d="M1018.476 320.47c-18.928 106.162-99.346 198.986-204.882 236.5-0.084 0.020-3.606 1.25-3.69 1.292-88.736 30.428-157.086 98.744-188.832 191.11-37.272 104.744-130.114 185.126-236.506 204.78-101.994 18.902-304.708-11.4-336.038-42.598-31.266-31.096-61.574-233.812-42.69-335.954 19.698-106.33 100.118-199.112 208.572-237.668 88.736-30.428 157.086-98.744 188.812-191.11 37.792-106.162 128.382-184.628 236.462-204.76 22.68-4.23 49.298-6.064 77.5-6.064 106.58 0 235.566 26.28 258.328 48.892 30.854 30.7 61.244 233.106 42.964 335.58zM647.438-15.876c-91.73 17.084-171.792 86.562-205.084 180.25-34.73 101.208-112.708 179.146-217.188 215.020-90.626 32.23-160.146 112.25-177.104 203.834-16.592 89.808 8.606 236.872 24.388 283.916 24.962-9.724 64.662-16.184 124.55-25.186 29.77-4.48 62.084-9.334 94.584-15.334 91.646-16.938 171.688-86.416 205.042-180.27 34.75-101.188 112.73-179.146 217.188-215 91.292-32.438 160.812-112.396 177.084-203.708 6.084-34.146 8.75-59.084 11.084-81.062 4.552-42.566 8.182-74.708 31.55-136.55-45.56-16.5-195.428-42.904-286.094-25.91zM960.48 62.966c-10.106 33.79-12.8 57.546-16.062 88.138-2.416 22.688-5.166 48.396-11.52 84.042-18.916 106.126-99.312 198.916-208.48 237.708-88.666 30.416-156.98 98.708-188.708 191.042-37.25 104.688-130.020 185.042-236.376 204.688-32.98 6.084-65.77 11.020-96 15.562-24.742 3.724-52.356 7.89-75.456 12.334 46.282 10.516 116.49 20.876 179.748 20.876 24.854 0 48.584-1.604 69.25-5.416 91.646-16.938 171.688-86.438 205.062-180.292 34.73-101.188 112.73-179.146 213.916-213.854l3.25-1.126 0.020-0.020c91.292-32.438 160.792-112.396 177.062-203.708 13.23-74.148-1.394-186.278-15.706-249.974zM667.77 105.666c-36.73 11.646-64.542 38.854-70.876 69.334-2.416 11.542-13.812 18.938-25.23 16.562-11.542-2.396-18.958-13.708-16.562-25.23 9.562-46.042 47.812-84.876 99.792-101.334 2.146-0.688 4.312-1 6.438-1 9.062 0 17.458 5.812 20.334 14.896 3.564 11.23-2.666 23.21-13.896 26.772zM618.666 277.334c9.062 0 17.458 5.812 20.334 14.896 3.562 11.23-2.666 23.208-13.896 26.77-36.73 11.646-64.542 38.854-70.876 69.334-2.416 11.562-13.854 18.98-25.23 16.562-11.542-2.396-18.958-13.708-16.562-25.23 9.562-46.042 47.812-84.876 99.792-101.334 2.148-0.686 4.314-0.998 6.438-0.998zM369.104 489.666c-36.73 11.646-64.542 38.854-70.876 69.334-2.416 11.542-13.77 18.958-25.23 16.562-11.542-2.396-18.958-13.708-16.562-25.23 9.562-46.042 47.812-84.876 99.792-101.334 2.146-0.688 4.312-1 6.438-1 9.062 0 17.458 5.812 20.334 14.896 3.562 11.23-2.666 23.21-13.896 26.772zM326.438 745.666c-11.292 3.604-23.208-2.688-26.77-13.896-3.562-11.23 2.666-23.208 13.896-26.77 36.73-11.646 64.542-38.854 70.876-69.334 2.104-10.084 10.98-17 20.876-17 1.438 0 2.896 0.146 4.354 0.438 11.542 2.396 18.958 13.708 16.562 25.23-9.566 46.040-47.816 84.874-99.794 101.332zM795.77 233.666c-11.292 3.604-23.208-2.646-26.77-13.896-3.562-11.23 2.666-23.208 13.896-26.77 14.75-4.666 25.812-15.146 28.208-26.666 2.104-10.084 10.98-17 20.876-17 1.438 0 2.896 0.146 4.354 0.438 11.542 2.396 18.958 13.708 16.562 25.23-5.562 26.79-27.458 49.268-57.126 58.664zM155.77 660.334c-14.75 4.666-25.812 15.146-28.208 26.666-2.438 11.562-13.75 18.916-25.23 16.562-11.542-2.396-18.958-13.708-16.562-25.23 5.584-26.812 27.458-49.292 57.126-58.666 2.146-0.688 4.312-1 6.438-1 9.062 0 17.458 5.812 20.334 14.896 3.562 11.23-2.668 23.23-13.898 26.772z" />
<glyph unicode="&#xe914;" glyph-name="strawberry" d="M833.475 673.134c1.687 0.484 3.352 0.969 5.055 1.477 5.156 1.523 9.281 5.375 11.211 10.375 1.023 2.656 1.266 5.453 0.953 8.211-0.086 2.969-0.727 5.883-2.289 8.484-32.234 53.25-89.054 88.656-169.101 105.546 9.836 13.555 17.18 28.172 21.851 43.758 0.695 2.32 0.812 4.672 0.555 6.945-0.211 6.867-4.336 13.219-11.125 15.742-63.648 23.687-102.406 13.742-123.609 1.406-5.805 6.633-13.937 11.437-23.851 14.437l-4.672 54.625c-0.453 5.172-3.195 9.891-7.484 12.82-4.289 2.937-9.664 3.805-14.664 2.344l-86.773-25.273c-4.547-1.312-8.328-4.422-10.539-8.625-2.187-4.18-2.57-9.070-1.070-13.555l12.078-35.976c-21.508 11.937-59.898 20.945-122.117-2.203-6.789-2.516-10.914-8.875-11.125-15.742-0.266-2.273-0.141-4.625 0.555-6.945 4.898-16.367 12.586-31.555 22.859-45.476-79.211-16.82-132.203-51.164-161.359-104.5-1.406-2.57-1.945-5.414-1.945-8.281-0.242-2.727 0.055-5.5 1.125-8.102 2-4.844 6.062-8.523 11.078-10.031 6.18-1.844 12.32-3.523 18.445-5.031-33.265-46.312-49.515-110.976-49.515-196.445-0.031-237.030 231.757-537.123 373.803-537.123 142.039 0 373.834 300.093 373.834 537.162-0.023 87.632-17.117 153.429-52.164 199.976zM202.595 702.931c30.305 38.258 81.328 62.101 155.218 72.554 6.703 0.953 12.234 5.703 14.18 12.18 0.555 1.875 0.711 3.781 0.625 5.672 0.227 5.156-1.773 10.258-5.742 13.781-12.867 11.391-22.742 24.234-29.617 38.305 64.968 18.766 85.601-8.367 86.297-9.305 4.047-6.242 11.648-9.25 18.867-7.391 1.062 0.266 2.062 0.625 3.023 1.078l2.602-7.742 19.609-58.469c1.25-3.703 3.641-6.687 6.664-8.766 0.086-0.055 0.141-0.156 0.227-0.211 0.312-0.211 0.695-0.227 1.023-0.422 1.406-0.812 2.883-1.422 4.461-1.82 0.297-0.070 0.539-0.273 0.828-0.328 0.406-0.070 0.836 0.055 1.234 0.016 0.664-0.086 1.305-0.328 2-0.328 1.18 0 2.375 0.125 3.555 0.367l50.976 10.656c8.594 1.805 14.492 9.734 13.75 18.469l-4.477 52.375c2.117-2.117 4.805-3.727 7.828-4.578 7.008-1.945 14.648 0.836 18.937 6.734 0.914 1.266 21.57 28.414 86.468 9.687-6.633-13.328-16.078-25.687-28.359-36.867-3.906-3.539-5.836-8.609-5.57-13.727-0.070-1.891 0.086-3.82 0.672-5.695 1.977-6.437 7.516-11.141 14.18-12.062 75.414-10.547 128.664-35.039 161.952-74.461-70.765-17.422-108.734-9.062-128.406 1.859-18.953 10.516-22.961 24.469-23.031 24.711-1.891 8.32-9.336 14.047-18.062 13.469-8.508-0.57-15.359-7.234-16.141-15.727-8.711-94.242-74.234-129.507-97.789-139.226-23.547 9.719-89.070 44.984-97.781 139.226-0.68 7.359-6.008 13.383-13.172 15.172-1.375 0.344-2.742 0.5-4.117 0.5-5.812 0-11.398-2.945-14.664-7.961-1.914-2.875-45.562-66.679-188.249-31.726zM505.656 920.078l3.953-46.305v-0.039l6.875-80.148-20.828-4.336-39.086 116.562zM511.797-29.285c-122.781 0-339.124 290.468-339.124 502.443 0 87.179 17.859 149.101 54.117 189.46 87.367-14.375 139.32 7.219 166.984 27.226 23.828-98.25 103.789-131.070 121.062-137.078 1.844-0.641 3.766-0.969 5.711-0.969 1.922 0 3.852 0.328 5.703 0.969 16.859 5.867 93.468 37.242 119.273 130.156 3.352-2.641 7.102-5.227 11.297-7.672 32.492-18.953 78.836-22.148 137.687-10.141 37.805-40.297 56.422-103.039 56.422-191.952-0.023-211.976-216.351-502.443-339.131-502.443zM303.509 583.869s-26.312-91.882-26.312-100.75c0-8.875 3.453-17.219 9.734-23.508 6.266-6.281 14.617-9.734 23.484-9.734s17.219 3.453 23.484 9.734c6.281 6.289 9.734 14.617 9.734 23.508 0 8.867-26.312 100.75-26.312 100.75-2.117 6.789-11.719 6.789-13.812 0zM508.797 514.447s-26.312-91.882-26.312-100.757c0-8.867 3.453-17.211 9.734-23.5 6.266-6.281 14.609-9.734 23.484-9.734 8.867 0 17.219 3.453 23.484 9.734 6.281 6.289 9.734 14.617 9.734 23.5 0 8.875-26.312 100.757-26.312 100.757-2.102 6.781-11.711 6.781-13.812 0zM716.515 584.080c-2.117 6.789-11.719 6.789-13.82 0 0 0-26.312-91.882-26.312-100.757 0-8.867 3.453-17.219 9.742-23.5 6.266-6.281 14.609-9.734 23.484-9.734 8.867 0 17.219 3.453 23.476 9.734 6.289 6.281 9.742 14.617 9.742 23.5 0 8.891-26.312 100.757-26.312 100.757zM387.305 358.034s-26.32-91.882-26.32-100.757c0-8.867 3.453-17.219 9.742-23.5 6.266-6.281 14.609-9.734 23.484-9.734 8.867 0 17.219 3.453 23.476 9.734 6.289 6.281 9.742 14.609 9.742 23.5 0 8.875-26.312 100.757-26.312 100.757-2.102 6.789-11.711 6.789-13.812 0zM508.797 202.245s-26.312-91.882-26.312-100.757c0-8.867 3.453-17.219 9.734-23.5 6.266-6.281 14.609-9.734 23.484-9.734 8.867 0 17.219 3.453 23.484 9.734 6.281 6.281 9.734 14.609 9.734 23.5 0 8.875-26.312 100.757-26.312 100.757-2.102 6.781-11.711 6.781-13.812 0zM630.289 358.237s-26.312-91.882-26.312-100.75c0-8.867 3.453-17.219 9.734-23.5 6.266-6.289 14.617-9.742 23.484-9.742s17.219 3.453 23.484 9.742c6.281 6.281 9.734 14.609 9.734 23.5 0 8.867-26.312 100.75-26.312 100.75-2.094 6.789-11.711 6.789-13.812 0z" />
<glyph unicode="&#xe915;" glyph-name="salad" d="M416.644 512.921l-29.723-4.023c9.494-70.133 77.54-126.457 110.082-143.994v-54.958h29.995v149.075c36.265 17.569 67.3 56.876 85.073 89.744l-26.383 14.267c-15.921-29.445-37.505-54.584-58.689-69.279v272.966h-29.995v-99.294l-33.556 33.99-21.344-21.072 54.9-55.608v-224.703c-28.607 20.012-73.601 62.961-80.359 112.889zM406.762 242.078c-50.067 25.091-106.069 35.348-163.84 44.456-40.387 6.371-90.608 37.785-131.060 81.983l-22.124-20.25c44.822-48.975 101.73-83.981 148.515-91.359 55.346-8.728 108.852-18.481 155.072-41.644zM300.469 917.588c50.711 20.884 113.893 10.048 160.955-27.605l18.739 23.422c-55.448 44.358-130.464 56.888-191.113 31.918-57.466-23.662-93.547-75.138-101.6-144.948l29.795-3.437c6.747 58.481 36.303 101.33 83.225 120.65zM703.4 924.075l7.019 29.163c-56.228 13.528-118.494-1.364-166.582-39.833l18.739-23.422c40.907 32.722 93.555 45.468 140.824 34.092zM806.743 796.936l29.795 3.439c-7.697 66.694-41.438 117.137-95.009 142.036l-12.642-27.201c43.75-20.334 71.399-62.339 77.856-118.275zM1017.327 665.587c-9.216 26.689-27.679 51.209-54.874 72.879-27.195 21.672-55.218 34.196-83.289 37.221-44.364 4.785-85.311-14.149-121.858-56.298-21.864 7.045-50.765 9.284-75.984-2.472-6.413 4.915-13.348 8.894-20.774 11.896-3.917 90.985-57.562 142.884-148.545 142.884-90.993 0-144.64-51.907-148.543-142.916-7.351-3.011-14.217-7.033-20.586-11.958-25.265 11.858-54.258 9.626-76.176 2.566-36.547 42.15-77.518 61.083-121.858 56.298-28.071-3.027-56.096-15.549-83.289-37.221-27.197-21.67-45.658-46.19-54.874-72.879-14.579-42.208-5.237-86.396 27.761-131.474-23.404-41.946-10.74-101.392 35.202-161.795l23.874 18.159c-41.041 53.956-51.787 104.567-28.751 135.387l6.933 9.272-7.215 9.052c-31.478 39.503-41.386 77.052-29.453 111.606 7.329 21.222 22.542 41.145 45.216 59.213s45.49 28.451 67.814 30.858c36.341 3.919 70.731-14.123 102.211-53.626l7.213-9.054 10.586 4.687c11.45 5.071 32.872 10.414 52.63 5.217-18.657-27.019-29.491-65.77-30.55-112.782l29.987-0.676c1.53 67.772 24.666 114.051 61.891 123.796l11.2 2.931v11.576c0 102.295 64.592 123.768 118.778 123.768s118.78-21.472 118.78-123.768v-11.576l11.2-2.931c30.968-8.109 46.036-38.875 53.22-63.257 21.886-74.269 1.2-186.252-43.402-234.947-6.143-6.707-10.898-11.952-15.417-17.005l22.36-19.992c4.435 4.959 9.116 10.122 15.175 16.737 51.495 56.22 74.884 179.437 50.055 263.686-5.095 17.289-11.974 32.16-20.45 44.498 19.696 5.101 41.007-0.226 52.414-5.277l10.586-4.687 7.213 9.054c31.48 39.503 65.888 57.532 102.211 53.626 22.324-2.408 45.14-12.79 67.814-30.858s37.887-37.991 45.216-59.213c11.934-34.552 2.026-72.101-29.453-111.606l-7.215-9.052 6.933-9.272c23.038-30.818 12.29-81.431-28.751-135.387l23.874-18.159c45.944 60.405 58.607 119.848 35.202 161.795 32.998 45.080 42.338 89.268 27.759 131.476zM781.078 286.534c-57.772-9.11-113.771-19.364-163.84-44.456l13.44-26.815c46.22 23.164 99.726 32.916 155.072 41.644 46.788 7.379 103.695 42.386 148.515 91.359l-22.124 20.25c-40.453-44.198-90.672-75.612-131.062-81.983zM645.613 198.676h-85.942c10.448 59.071 49.833 111.726 79.7 147.265l-22.96 19.296c-33.020-39.285-76.846-98.244-87.156-166.562h-34.524c-11.926 79.897-69.159 148.287-122.526 206.55-27.621 30.155-47.315 86.018-51.405 145.792l-29.925-2.046c4.531-66.234 27.219-129.077 59.211-164.004 49.267-53.788 102.015-116.441 114.255-186.29h-86.492c-24.807 0-44.992-20.182-44.992-44.992s20.184-44.992 44.992-44.992h89.162v-16.025l-60.793-76.288c-2.474-3.105-6.041-5.067-10.044-5.519-4.003-0.45-7.921 0.662-11.028 3.139s-5.067 6.043-5.521 10.046c-0.452 4.003 0.662 7.919 3.137 11.028l27.315 34.28-23.456 18.693-27.315-34.28c-7.469-9.372-10.838-21.124-9.484-33.088 1.352-11.964 7.259-22.668 16.631-30.135 8.019-6.389 17.775-9.778 27.919-9.778 1.714 0 3.439 0.098 5.169 0.292 11.966 1.352 22.668 7.259 30.135 16.631l37.333 46.849v-61.679c0-24.809 20.184-44.992 44.992-44.992s44.992 20.182 44.992 44.992v61.677l37.331-46.847c7.469-9.374 18.171-15.281 30.137-16.633 1.73-0.196 3.455-0.292 5.169-0.292 10.142 0 19.902 3.389 27.919 9.778 9.374 7.469 15.281 18.171 16.631 30.137 1.354 11.964-2.016 23.716-9.484 33.088l-27.315 34.28-23.456-18.693 27.315-34.28c2.476-3.107 3.589-7.023 3.137-11.028-0.454-4.003-2.414-7.573-5.521-10.048s-7.015-3.587-11.028-3.137c-4.003 0.452-7.571 2.414-10.046 5.519l-60.789 76.284v16.027h88.62c24.807 0 44.992 20.184 44.992 44.992s-20.184 44.992-44.992 44.992zM526.996-17.141c0-8.27-6.727-14.997-14.997-14.997s-14.997 6.727-14.997 14.997l0.002 125.833h29.993zM645.613 138.687h-267.763c-8.27 0-14.997 6.729-14.997 14.997s6.727 14.997 14.997 14.997h267.763c8.27 0 14.997-6.727 14.997-14.997s-6.727-14.997-14.997-14.997zM699.823 873.672h29.995v-29.995h-29.995zM880.298 668.437h29.995v-29.995h-29.995zM294.185 873.672h29.995v-29.995h-29.995zM643.645 637.653h29.995v-29.995h-29.995zM113.709 668.437h29.995v-29.995h-29.995zM873.377 490.441h29.995v-29.995h-29.995zM643.645 548.445c-3.765-35.732-16.331-81.133-36.085-102.699l22.118-20.26c26.179 28.579 39.835 81.067 43.884 120.656l0.078 31.52h-29.995zM120.628 490.441h29.997v-29.995h-29.997zM570.792 731.621h29.995v-29.995h-29.995z" />
<glyph unicode="&#xe916;" glyph-name="truck" d="M238.934 285.866c-56.474 0-102.4-45.926-102.4-102.4s45.926-102.4 102.4-102.4 102.4 45.926 102.4 102.4c0 56.474-45.928 102.4-102.4 102.4zM238.934 115.2c-37.65 0-68.266 30.618-68.266 68.266 0 37.65 30.618 68.266 68.266 68.266s68.266-30.618 68.266-68.266c0-37.648-30.618-68.266-68.266-68.266zM819.2 285.866c-56.474 0-102.4-45.926-102.4-102.4s45.926-102.4 102.4-102.4c56.474 0 102.4 45.926 102.4 102.4s-45.926 102.4-102.4 102.4zM819.2 115.2c-37.65 0-68.266 30.618-68.266 68.266 0 37.65 30.618 68.266 68.266 68.266 37.65 0 68.266-30.618 68.266-68.266s-30.616-68.266-68.266-68.266zM1021.286 380.432l-153.6 238.934c-3.14 4.882-8.55 7.834-14.354 7.834h-187.732c-9.438 0-17.066-7.646-17.066-17.066v-426.666c0-9.438 7.628-17.066 17.066-17.066h68.266v34.134h-51.2v392.53h161.348l145.852-226.884v-165.65h-85.334v-34.132h102.4c9.438 0 17.066 7.628 17.066 17.066v187.734c0.002 3.26-0.936 6.486-2.712 9.232zM750.934 405.334v119.466h136.534v34.134h-153.6c-9.438 0-17.066-7.646-17.066-17.066v-153.6c0-9.438 7.628-17.066 17.066-17.066h256v34.134h-238.934zM665.6 746.666h-648.534c-9.42 0-17.066-7.646-17.066-17.066v-546.134c0-9.438 7.646-17.066 17.066-17.066h136.534v34.134h-119.466v512h614.4v-512h-324.268v-34.134h341.334c9.438 0 17.066 7.628 17.066 17.066v546.134c0 9.42-7.628 17.066-17.066 17.066zM17.066 268.8h102.4v-34.134h-102.4v34.134zM358.4 268.8h290.134v-34.134h-290.134v34.134zM938.666 268.8h68.266v-34.134h-68.266v34.134zM68.266 678.4h597.334v-34.134h-597.334v34.134zM221.866 200.534h34.134v-34.134h-34.134v34.134zM802.134 200.534h34.134v-34.134h-34.134v34.134zM68.266 814.934h238.934v-34.134h-238.934v34.134zM0 814.934h34.134v-34.134h-34.134v34.134z" />
<glyph unicode="&#xe917;" glyph-name="sofa" d="M956.982 522.51v148.47c0 70.822-57.618 128.44-128.44 128.44h-633.084c-70.822 0-128.44-57.618-128.44-128.44v-148.47c-39.748-20.366-67.018-61.632-67.018-109.152 0-46.526 26.79-88.718 67.348-109.352v-125.304c0-16.568 13.432-30 30-30h26.124v-22.122c0-16.568 13.432-30 30-30s30 13.432 30 30v22.122h657.056v-22.122c0-16.568 13.432-30 30-30s30 13.432 30 30v22.122h26.124c16.568 0 30 13.432 30 30v125.304c40.558 20.634 67.348 62.826 67.348 109.352 0 47.52-27.27 88.786-67.018 109.152zM186.198 208.702h-58.85v115.596c0 13.39-8.876 25.16-21.75 28.842-26.848 7.68-45.598 32.442-45.598 60.218 0 34.562 28.306 62.678 63.098 62.678s63.098-28.118 63.098-62.678v-204.656zM777.802 208.702h-531.604v49.574h531.606v-49.574zM777.802 318.276h-531.604v48.32h531.606v-48.32zM778.53 426.596h-533.060c-6.51 60.166-56.84 107.406-118.452 109.342v135.042c0 37.738 30.702 68.44 68.44 68.44h633.084c37.738 0 68.44-30.702 68.44-68.44v-135.042c-61.61-1.934-111.942-49.174-118.452-109.342zM918.402 353.142c-12.874-3.682-21.75-15.452-21.75-28.842v-115.596h-58.85v204.654c0 34.562 28.306 62.678 63.098 62.678s63.1-28.116 63.1-62.678c0-27.776-18.75-52.538-45.598-60.216zM123.098 440.964c-16.41 0-29.712-13.242-29.712-29.578s13.302-29.578 29.712-29.578 29.712 13.242 29.712 29.578c0.002 16.336-13.302 29.578-29.712 29.578zM900.902 440.964c-16.41 0-29.712-13.242-29.712-29.578s13.302-29.578 29.712-29.578 29.712 13.242 29.712 29.578-13.302 29.578-29.712 29.578zM317.88 546.302c-16.41 0-29.712-13.242-29.712-29.578s13.302-29.578 29.712-29.578 29.712 13.242 29.712 29.578c0 16.334-13.302 29.578-29.712 29.578zM539.732 516.722c0-16.335-13.303-29.578-29.712-29.578s-29.712 13.243-29.712 29.578c0 16.335 13.303 29.578 29.712 29.578s29.712-13.243 29.712-29.578zM706.122 546.302c-16.41 0-29.712-13.242-29.712-29.578s13.302-29.578 29.712-29.578 29.712 13.242 29.712 29.578c0 16.334-13.304 29.578-29.712 29.578zM213.886 674.878c-16.41 0-29.712-13.242-29.712-29.578s13.302-29.578 29.712-29.578 29.712 13.242 29.712 29.578c0 16.334-13.302 29.578-29.712 29.578zM442.34 645.298c0-16.335-13.303-29.578-29.712-29.578s-29.712 13.243-29.712 29.578c0 16.335 13.303 29.578 29.712 29.578s29.712-13.243 29.712-29.578zM611.372 674.878c-16.41 0-29.712-13.242-29.712-29.578s13.302-29.578 29.712-29.578 29.712 13.242 29.712 29.578c0 16.334-13.302 29.578-29.712 29.578zM810.114 674.878c-16.41 0-29.712-13.242-29.712-29.578s13.302-29.578 29.712-29.578 29.712 13.242 29.712 29.578c0 16.334-13.302 29.578-29.712 29.578z" />
<glyph unicode="&#xe918;" glyph-name="living-room" d="M941.265 422.453h-23.547v183.422h76.281c9.195 0 17.891 4.219 23.578 11.453 5.687 7.227 7.742 16.664 5.578 25.602l-45.867 189.633c-3.258 13.461-15.312 22.945-29.164 22.945h-120.82c-13.852 0-25.898-9.484-29.156-22.945l-45.875-189.633c-2.164-8.937-0.102-18.375 5.586-25.602 5.687-7.234 14.375-11.453 23.578-11.453h76.281v-71.976c-13.703 8.437-29.82 13.32-47.062 13.32h-597.32c-49.625 0-90-40.375-90-90v-34.766h-40.602c-45.617 0-82.734-37.117-82.734-82.734v-270.844c0-45.625 37.117-82.742 82.734-82.742h858.53c45.617 0 82.734 37.117 82.734 82.742v270.844c0 45.617-37.117 82.734-82.734 82.734zM82.734 46.133c-12.531 0-22.734 10.203-22.734 22.742v270.844c0 12.539 10.203 22.734 22.734 22.734h107.094c12.539 0 22.734-10.195 22.734-22.734v-270.844c0-12.539-10.195-22.742-22.734-22.742zM213.336 487.219h597.328c16.539 0 30-13.461 30-30v-34.766h-6.492c-45.625 0-82.734-37.117-82.734-82.734v-105.422h-478.875v105.422c0 45.617-37.117 82.734-82.734 82.734h-6.492v34.766c0 16.539 13.461 30 30 30zM272.562 68.875v105.422h478.875v-105.422c0-7.891 1.133-15.508 3.203-22.742h-485.281c2.070 7.234 3.203 14.852 3.203 22.742zM811.437 68.875v270.844c0 12.539 10.195 22.734 22.734 22.734h107.094c12.531 0 22.734-10.195 22.734-22.734v-270.844c0-12.539-10.203-22.742-22.734-22.742h-107.094c-12.539 0-22.734 10.203-22.734 22.742zM924.515 795.507l31.359-129.625h-136.32l31.359 129.625zM68.172 645.359h507.718c16.57 0 30 13.43 30 30v202.64c0 16.57-13.43 30-30 30h-507.718c-16.57 0-30-13.43-30-30v-202.64c0-16.57 13.43-30 30-30zM98.172 848h447.718v-142.64h-447.718z" />
<glyph unicode="&#xe919;" glyph-name="furniture" d="M994 617.918h-59.644v50.17c0 69.14-56.25 125.39-125.39 125.39h-201.562c-38.162 0-72.374-17.158-95.39-44.14-23.016 26.982-57.228 44.14-95.39 44.14h-201.566c-69.14 0-125.39-56.25-125.39-125.39v-50.17h-59.668c-16.568 0-30-13.432-30-30v-405.74c0-16.568 13.432-30 30-30h102v-19.654c0-16.568 13.432-30 30-30s30 13.432 30 30v19.654h640v-19.654c0-16.568 13.432-30 30-30s30 13.432 30 30v19.654h102c16.568 0 30 13.432 30 30v405.74c0 16.568-13.432 30-30 30zM195.53 345.024v59.722h286.484v-59.722zM542.012 404.748h286.458v-59.722h-286.458zM607.404 733.478h201.564c36.056 0 65.39-29.334 65.39-65.39v-65.128c-27.534-17.312-45.886-47.948-45.886-82.806v-55.404h-286.46v203.34c0 36.054 29.334 65.388 65.392 65.388zM215.058 733.478h201.564c36.056 0 65.39-29.334 65.39-65.39v-203.34h-286.482v55.406c0 34.846-18.34 65.472-45.86 82.79v65.144c-0.002 36.056 29.332 65.39 65.388 65.39zM964 212.176h-100.608c-0.464 0.022-0.922 0.070-1.392 0.070s-0.928-0.048-1.392-0.070h-697.216c-0.464 0.022-0.922 0.070-1.392 0.070s-0.928-0.048-1.392-0.070h-100.608v345.74h37.764c20.824 0 37.764-16.942 37.764-37.764v-205.128c0-16.568 13.432-30 30-30h692.942c16.568 0 30 13.432 30 30v205.128c0 20.824 16.942 37.766 37.764 37.766h37.766z" />
<glyph unicode="&#xe91a;" glyph-name="dining-room" d="M984 808h-944c-22.092 0-40-17.908-40-40v-192c0-22.092 17.908-40 40-40h432v-368h-140c-22.092 0-40-17.908-40-40s17.908-40 40-40h360c22.092 0 40 17.908 40 40s-17.908 40-40 40h-140v368h432c22.092 0 40 17.908 40 40v192c0 22.092-17.908 40-40 40zM944 616h-864v112h864v-112z" />
<glyph unicode="&#xe91b;" glyph-name="dining-chair" d="M798.262 492.562v172.998h-572.524v-172.998h256.236v-336.788h-42.324v-60.052h144.7v60.052h-42.324v336.788h256.236zM285.79 552.614v52.896h452.422v-52.896h-452.422zM115.816 450.722v276.202l-73.354 73.354-42.462-42.464 55.766-55.766v-606.326h60.052v182.002h210.83v-182.002h60.052v355h-270.884zM326.646 337.776h-210.83v52.896h210.83v-52.896zM981.54 800.278l-73.354-73.354v-276.202h-270.884v-355h60.052v182.002h210.83v-182.002h60.052v606.326l55.764 55.766-42.46 42.464zM908.184 337.774h-210.83v52.896h210.83v-52.896z" />
<glyph unicode="&#xe91c;" glyph-name="decor" d="M1024 422.624c0 92.612-100.87 150.594-180.75 104.072v183.12c0 90.738-73.82 164.558-164.558 164.558h-333.384c-90.738 0-164.558-73.82-164.558-164.558v-183.12c-79.932 46.552-180.75-11.506-180.75-104.072v-311h90.376v-90h60v90h723.25v-90h60v90h90.374zM240.75 709.816c0 57.654 46.906 104.558 104.558 104.558h333.382c57.654 0 104.558-46.906 104.558-104.558v-319.726c-26.148 20.288-58.936 32.41-94.518 32.41h-134.43l130.962 130.96-173.262 173.266-173.264-173.264 130.962-130.96h-134.43c-35.582 0-68.368-12.12-94.518-32.41v32.534zM512 465.050l-88.412 88.41 88.412 88.412 88.412-88.412zM180.75 171.624h-120.75v251c0 33.29 27.084 60.376 60.376 60.376s60.376-27.084 60.376-60.376v-251zM783.25 171.624h-542.5v96.358c0 52.118 42.4 94.518 94.518 94.518h353.464c52.118 0 94.518-42.4 94.518-94.518zM964 171.624h-120.75c0 44.562 0 185.618 0 251 0 33.29 27.084 60.376 60.376 60.376s60.374-27.084 60.374-60.376z" />
<glyph unicode="&#xe91d;" glyph-name="lamp" d="M854.539 575.93v60h-49.555c-13.992 104.094-99.727 185.766-205.664 193.469 4.469 11 6.953 23.016 6.953 35.602 0 52.383-42.625 95-95 95-52.383 0-95-42.617-95-95 0-12.586 2.477-24.602 6.945-35.602-105.938-7.695-191.672-89.375-205.664-193.469h-49.555v-60h57.602l90.406-318.531h-60.484v-180.523h156.75v-140.875h60v140.875h78v-140.875h60v140.875h156.75v180.523h-60.492l90.406 318.531zM511.273 900c19.297 0 35-15.703 35-35s-15.703-35-35-35c-19.305 0-35 15.703-35 35s15.695 35 35 35zM439.617 770h143.305c80.219 0 147.133-57.883 161.273-134.070h-465.852c14.141 76.188 81.055 134.070 161.273 134.070zM287.969 575.93h193.305v-318.531h-102.898zM707.023 197.398v-60.523h-391.5v60.523zM644.164 257.398h-102.891v318.531h193.297z" />
<glyph unicode="&#xe91e;" glyph-name="table" d="M1020.825 688.317l-85.333 119.467c-3.2 4.483-8.375 7.15-13.892 7.15h-802.133c-4.983-0.008-9.717-2.183-12.95-5.975l-102.4-119.467c-2.658-3.083-4.125-7.017-4.117-11.092v-68.267c0-9.425 7.642-17.067 17.067-17.067h17.067v-494.933c0-9.425 7.642-17.067 17.067-17.067h68.267c9.425 0 17.067 7.642 17.067 17.067v494.933h17.067v-375.467c0-9.425 7.642-17.067 17.067-17.067h51.2c9.425 0 17.067 7.642 17.067 17.067v375.467h546.133v-375.467c0-9.425 7.642-17.067 17.067-17.067h51.2c9.425 0 17.067 7.642 17.067 17.067v375.467h17.067v-494.933c0-9.425 7.642-17.067 17.067-17.067h68.267c9.425 0 17.067 7.642 17.067 17.067v494.933h17.067c9.425 0 17.067 7.642 17.067 17.067v68.267c0 3.558-1.108 7.025-3.175 9.917zM127.317 780.8h785.492l60.967-85.333h-919.608zM102.4 115.2h-34.133v477.867h34.133zM204.8 234.667h-17.067v358.4h17.067zM836.267 234.667h-17.067v358.4h17.067zM955.733 115.2h-34.133v477.867h34.133zM34.133 627.2v34.133h955.733v-34.133z" />
<glyph unicode="&#xe91f;" glyph-name="polo" d="M838.404 831.4l-85.268 28.422-91.39 91.39c-6.612 6.612-15.926 9.764-25.196 8.522-6.602-0.884-12.642-3.926-17.246-8.536-28.66-28.66-66.768-44.442-107.304-44.442s-78.644 15.784-107.304 44.442c-4.604 4.612-10.644 7.652-17.246 8.536-9.27 1.244-18.584-1.91-25.196-8.522l-91.39-91.39-85.268-28.422c-102.798-2.682-185.596-87.136-185.596-190.568v-257.098c0-16.568 13.432-30 30-30h130.666v-387.734c0-16.568 13.432-30 30-30h642.668c16.568 0 30 13.432 30 30v387.734h130.666c16.568 0 30 13.432 30 30v257.098c0 103.432-82.798 187.886-185.596 190.568zM160.666 413.734h-100.666v68.534h100.666zM160.666 542.266h-100.666v98.566c0 61.722 43.032 113.584 100.666 127.166zM647.094 881.014l53.338-53.338-73.314-146.626-73.336 36.668zM512 846.754c16.978 0 33.646 1.984 49.75 5.842l-49.75-87.062-49.75 87.064c16.102-3.86 32.772-5.844 49.75-5.844zM376.906 881.014l93.312-163.296-73.336-36.668-73.314 146.626zM803.334-4h-582.668v783.844l51.204 17.068 84.766-169.528c7.41-14.818 25.426-20.828 40.248-13.416l85.116 42.558v-144.258c0-16.568 13.432-30 30-30s30 13.432 30 30v144.258l85.118-42.558c14.818-7.41 32.84-1.402 40.248 13.416l84.766 169.528 51.204-17.068v-783.844zM964 413.734h-100.666v68.534h100.666zM964 542.266h-100.666v225.732c57.634-13.582 100.666-65.444 100.666-127.166z" />
<glyph unicode="&#xe920;" glyph-name="socks" d="M949.324 535.102c-0.006 0.006-417.774 416.152-417.774 416.152-9.132 9.098-23.058 11.342-34.588 5.578-94.288-47.146-204.19-50.93-301.518-10.39l-27 11.25c-9.258 3.856-19.832 2.832-28.176-2.734-8.346-5.564-13.358-14.93-13.358-24.958v-162.914c-19.802 4.548-39.338 10.76-58.388 18.698-16.308 6.79-26.968 11.236-26.972 11.238-9.258 3.86-19.834 2.84-28.186-2.722-8.348-5.566-13.364-14.934-13.364-24.968v-207.726c0-59.526 23.178-115.476 65.262-157.54 0 0 393.336-393.352 393.396-393.412 48.16-48.14 112.182-74.654 180.27-74.654 120.324 0 219.96 83.58 249.34 192.088 52.24 29.178 135.732 100.78 135.732 226.74 0 68.096-26.514 132.112-74.676 180.274zM186.91 885.312c102.964-38.504 216.62-35.354 317.166 8.62l381.568-380.086-101.388-101.4-379.618 378.142c-5.756 5.734-13.416 8.746-21.18 8.746-4.554 0-9.144-1.038-13.408-3.168-57.072-28.536-119.876-41.396-183.14-37.672zM192.8 361.382l-85.118 85.116c-30.748 30.736-47.682 71.614-47.682 115.108v15.94c32.058-5.94 61.556-21.39 85.112-44.946 30.752-30.75 47.688-71.636 47.688-115.126zM252.8 301.382v116.090c0 59.516-23.176 115.47-65.262 157.554-34.928 34.93-79.402 56.834-127.538 63.274v86.346c102.952-38.5 216.618-35.356 317.166 8.62l381.568-380.084-278.868-278.866zM638.928-4c-41.928 0-81.842 13.15-115.028 37.496l275.688 275.686c24.35-33.168 37.502-73.080 37.502-115.020 0-107.694-89.764-198.162-198.162-198.162zM896.764 207.188c-3.058 61.17-27.618 118.37-70.068 162.846l99.806 99.816c24.348-33.176 37.498-73.086 37.498-115.022 0-89.844-58.702-139.898-67.236-147.64z" />
<glyph unicode="&#xe921;" glyph-name="cap" d="M542 926.846v3.154c0 16.568-13.432 30-30 30s-30-13.432-30-30v-3.154c-233.584-15.416-417.734-209.464-417.734-446.714v-449.866c0-57.266 37.002-94.268 94.266-94.268 40.962 0 76.968 17.052 118.658 36.798 56.068 26.558 125.846 59.604 234.81 59.604 106.104 0 169.698-30.56 225.802-57.524 41.604-19.992 80.9-38.876 127.664-38.876 57.264 0 94.266 37.002 94.266 94.268v449.864c0.002 237.528-184.41 431.304-417.732 446.714zM252.8 608.666c0 142.924 116.276 259.202 259.2 259.202s259.2-116.278 259.2-259.202v-194.934h-518.4zM124.266 480.132c0 96.206 35.234 184.33 93.46 252.178-16.046-38.046-24.926-79.826-24.926-123.644v-194.934h-68.534zM899.734 30.268c0-16.946-4.072-34.268-34.266-34.268-33.096 0-63.36 14.542-101.674 32.958-58.82 28.264-132.020 63.442-251.794 63.442-122.456 0-202.238-37.788-260.492-65.376-36.596-17.332-65.504-31.024-92.974-31.024-30.196 0-34.266 17.322-34.266 34.268v323.464h775.466zM899.734 413.732h-68.534v194.934c0 43.818-8.88 85.598-24.926 123.644 58.224-67.848 93.46-155.972 93.46-252.178z" />
<glyph unicode="&#xe922;" glyph-name="sunglasses" d="M994 397.666h-2.132v291.366c0 87.398-71.104 158.502-158.534 158.502-16.568 0-29.984-13.432-29.984-30s13.448-30 30.016-30c54.314 0 98.502-44.188 98.502-98.502v-291.366h-211c-79.408 0-146.246-52.838-167.516-125.214-13.076 4.748-27.018 7.24-41.35 7.24-14.33 0-28.27-2.49-41.346-7.238-21.288 72.458-88.228 125.212-167.52 125.212h-211v291.366c0 54.314 44.188 98.502 98.534 98.502 16.568 0 29.984 13.432 29.984 30s-13.448 30-30.016 30c-87.398 0-158.502-71.104-158.502-158.502v-291.366h-2.136c-16.568 0-30-13.432-30-30v-96.398c0-122.854 99.948-222.8 222.8-222.8h80.332c91.738 0 166.704 70.516 174.008 160.212 10.154 7.070 22.398 11.012 34.86 11.012s24.706-3.942 34.86-11.012c7.306-89.834 82.418-160.214 174.008-160.214h80.332c122.854 0 222.8 99.948 222.8 222.8v96.398c0 16.57-13.432 30.002-30 30.002zM60 271.268v66.398h243.132c2.566 0 5.104-0.114 7.626-0.28l-191.582-191.586c-36.122 29.886-59.176 75.034-59.176 125.468zM303.132 108.466h-80.332c-16.948 0-33.294 2.61-48.67 7.438l198.386 198.388c27.49-20.934 45.216-54 45.216-91.226 0-63.4-51.314-114.6-114.6-114.6zM606.268 223.066c0 63.4 51.314 114.6 114.6 114.6h125.404l-200.852-200.858c-23.998 21.006-39.152 51.85-39.152 86.258zM964 271.268c0-89.77-73.032-162.8-162.8-162.8h-80.332c-5.984 0-11.86 0.46-17.596 1.342l227.85 227.858h32.878z" />
<glyph unicode="&#xe923;" glyph-name="trousers" d="M959.326-29.070s-79.69 478.308-113.584 681.512c-10.018 60.572-37.182 116.006-78.808 161.086v116.472c0 16.568-13.432 30-30 30h-449.868c-16.568 0-30-13.432-30-30v-116.47c-41.626-45.082-68.79-100.51-78.8-161.046-33.9-203.244-113.592-681.554-113.592-681.554-1.45-8.698 1.002-17.594 6.702-24.322s14.072-10.608 22.89-10.608h321.334c14.666 0 27.18 10.602 29.592 25.068l66.808 400.85 66.808-400.85c2.412-14.466 14.928-25.068 29.592-25.068h321.334c8.818 0 17.19 3.88 22.89 10.608s8.15 15.624 6.702 24.322zM317.066 900h389.868v-68.534h-389.868zM794.48-4l-92.222 553.332c-2.724 16.342-18.18 27.386-34.524 24.66-16.344-2.724-27.384-18.18-24.66-34.524l90.578-543.468h-99.838l-92.222 553.332c-2.412 14.466-14.926 25.068-29.592 25.068s-27.18-10.602-29.592-25.068l-92.222-553.332h-99.838l90.578 543.468c2.724 16.342-8.316 31.8-24.66 34.524-16.342 2.722-31.8-8.316-34.524-24.66l-92.222-553.332h-99.842c18.964 113.826 79.402 476.536 107.776 646.654 7.99 48.318 29.502 92.608 62.446 128.814h424.2c32.944-36.206 54.456-80.5 62.452-128.854 28.368-170.084 88.804-532.79 107.77-646.614z" />
<glyph unicode="&#xe924;" glyph-name="shoes" d="M833.334 461.934h-89.318l-298.416 149.21v142.122c0 16.568-13.432 30-30 30h-321.334c-16.568 0-30-13.432-30-30v-151.768c-42.074-66.242-64.266-142.502-64.266-221.154v-237.61c0-16.568 13.432-30 30-30h964c16.568 0 30 13.432 30 30v128.534c0 105.132-85.534 190.666-190.666 190.666zM766.934 401.934h66.4c61.728 0 113.598-43.030 127.192-100.666h-193.592zM385.6 723.266v-82.12c-33.174 16.984-56.462 46.996-64.97 82.12zM60 380.344c0 69.85 20.48 137.494 59.228 195.616 3.286 4.928 5.038 10.718 5.038 16.64v130.666h135.186c9.412-58.526 46.102-109.184 100.412-136.34 23.852-11.924 51.118-25.556 79.754-39.874l-18.718-37.436c-7.41-14.82-1.402-32.838 13.416-40.25 14.82-7.41 32.84-1.402 40.25 13.416l18.718 37.436c25.296-12.648 50.676-25.338 74.868-37.434l-18.718-37.438c-7.41-14.82-1.404-32.838 13.416-40.25 14.82-7.41 32.84-1.402 40.248 13.416l18.718 37.436c36.918-18.46 67.438-33.72 85.116-42.56v-112.126h-646.932zM964 172.734h-904v68.534h904zM254.934 558.334c-51.978 0-94.266-42.288-94.266-94.266s42.288-94.266 94.266-94.266 94.266 42.288 94.266 94.266-42.288 94.266-94.266 94.266zM254.934 429.8c-18.894 0-34.266 15.372-34.266 34.266s15.372 34.266 34.266 34.266 34.266-15.372 34.266-34.266-15.372-34.266-34.266-34.266z" />
<glyph unicode="&#xe925;" glyph-name="dress-1" d="M736.934 960h-96.4c-16.568 0-30-13.464-30-30.032 0-54.314-44.188-98.5-98.566-98.5-54.312 0-98.5 44.188-98.5 98.534 0 16.568-13.432 30-30 30 0 0-96.426 0-96.432 0-87.418-0.002-158.502-71.134-158.502-158.502v-449.9c0-16.568 13.432-30 30-30h51.61c-11.402-34.154-17.342-70.152-17.342-106.116v-249.484c0-16.568 13.432-30 30-30h578.398c16.568 0 30 13.432 30 30v249.484c0 35.964-5.94 71.962-17.34 106.116h51.608c16.568 0 30 13.432 30 30v449.9c-0.002 87.444-71.158 158.5-158.534 158.5zM188.534 381.6v419.9c0 22.96 11.782 75.566 68.534 93.776v-407.558c0-36.28-7.348-72.612-21.366-106.118zM771.2-4h-518.4v219.484c0 42.36 10.018 84.792 28.968 122.704 23.092 46.204 35.296 97.91 35.296 149.53v412.282h39.242c14.048-73.12 78.51-128.534 155.724-128.534 77.144 0 141.596 55.406 155.654 128.534h39.246v-412.284c0-51.62 12.206-103.326 35.298-149.53 18.95-37.912 28.966-80.342 28.966-122.704v-219.482zM835.466 381.6h-47.168c-14.018 33.504-21.366 69.838-21.366 106.118v407.558c56.434-18.116 68.534-70.634 68.534-93.778z" />
<glyph unicode="&#xe926;" glyph-name="jumpsuit" d="M688.732 960s-16.064-0.008-16.064-0.010c-6.72 0-13.35-2.25-18.742-6.564l-141.926-113.54-141.926 113.54c-5.394 4.314-12.022 6.564-18.74 6.566 0 0-16.066 0.008-16.066 0.008-114.366 0-206.734-92.576-206.734-206.734v-80.334c0-16.568 13.432-30 30-30h115.558c30.544-34.604 47.242-78.588 47.242-125.14v-39.792h-2.134c-16.568 0-30-13.432-30-30 0-11.296 6.25-21.124 15.474-26.242l-44.438-88.874c-44.116-88.214-67.436-186.99-67.436-285.65v-81.234c0-16.568 13.432-30 30-30h224.932c11.364 0 21.752 6.42 26.832 16.584l37.436 74.868 37.436-74.87c5.080-10.164 15.468-16.584 26.832-16.584h224.932c16.568 0 30 13.432 30 30v81.234c0 98.66-23.318 197.436-67.434 285.65l-44.438 88.876c9.224 5.118 15.474 14.946 15.474 26.242 0 16.568-13.432 30-30 30h-2.134v39.794c0 46.552 16.698 90.536 47.242 125.14h115.558c16.568 0 30 13.432 30 30v80.334c-0.002 114.364-92.578 206.732-206.736 206.732zM263.642 702.934h-75.108v50.334c0 74.058 54.47 134.214 123.94 144.984zM710.102 306.048c39.97-79.926 61.098-169.422 61.098-258.816v-51.232h-176.39l-55.976 111.95c-5.080 10.164-15.468 16.584-26.832 16.584s-21.752-6.42-26.832-16.584l-55.978-111.95h-176.392v51.234c0 89.392 21.126 178.89 61.098 258.816l55.978 111.95h93.584l-42.558-85.116c-7.41-14.82-1.404-32.84 13.416-40.25 14.816-7.408 32.838-1.404 40.248 13.416l37.434 74.868 37.436-74.87c7.438-14.878 25.486-20.798 40.248-13.416 14.82 7.41 20.826 25.43 13.416 40.25l-42.558 85.118h93.584zM642.666 517.794v-39.794h-261.332v39.794c0 60.802-21.614 118.282-61.21 163.674l48.976 195.9 124.16-99.328c10.958-8.766 26.524-8.766 37.48 0l124.16 99.328 48.976-195.9c-39.596-45.392-61.21-102.872-61.21-163.674zM835.466 702.934h-75.11l-48.83 195.318c69.542-10.782 123.94-71.012 123.94-144.984z" />
<glyph unicode="&#xe927;" glyph-name="pants" d="M865.466 960h-706.932c-16.568 0-30-13.432-30-30v-964c0-16.568 13.432-30 30-30h289.2c16.568 0 30 13.432 30 30v452c0 18.696 15.116 34.268 34.266 34.268 18.65 0 34.266-15.074 34.266-34.268v-452c0-16.568 13.432-30 30-30h289.2c16.568 0 30 13.432 30 30v964c0 16.568-13.43 30-30 30zM509.866 900h164.934v-68.534h-164.934zM509.866 771.466h68.534v-66.4c0-36.718-29.706-66.4-66.4-66.4h-2.134zM349.2 900h100.666v-68.534h-100.666zM188.534 900h100.666v-68.534h-100.666zM835.466 638.666h-34.298c-18.876 0-34.234 15.358-34.234 34.234v0.034c0 16.568-13.432 29.982-30 29.982s-30-13.448-30-30.016c0-51.96 42.274-94.234 94.234-94.234h34.298v-582.666h-229.2v422c0 52.672-42.778 94.268-94.266 94.268-52.532 0-94.266-42.614-94.266-94.268v-422h-229.2v582.666h34.266c51.978 0 94.266 42.29 94.266 94.268 0 16.568-13.432 30-30 30s-30-13.432-30-30c0-18.894-15.372-34.268-34.266-34.268h-34.266v132.8h261.334v-162.8c0-16.568 13.432-30 30-30h32.132c69.916 0 126.4 56.58 126.4 126.4v66.4h197.066zM835.466 831.466h-100.666v68.534h100.666z" />
<glyph unicode="&#xe928;" glyph-name="clothes" d="M833.334 895.734h-192.8c-7.984 0-15.626-3.194-21.236-8.806-28.648-28.658-66.752-44.44-107.296-44.44s-78.65 15.782-107.296 44.44c-5.61 5.612-13.252 8.806-21.236 8.806h-192.8c-105.47 0-190.67-85.356-190.67-190.668v-257.066c0-16.568 13.432-30 30-30h130.666v-387.734c0-16.568 13.432-30 30-30h642.666c16.568 0 30 13.432 30 30v387.734h130.668c16.568 0 30 13.432 30 30v257.066c0 105.484-85.384 190.668-190.666 190.668zM160.666 478h-100.666v227.066c0 84.998 69.502 119.936 100.666 127.226zM413.466 806.688c30.018-15.816 63.626-24.2 98.534-24.2s68.516 8.384 98.534 24.2v-5.222c0-54.332-44.202-98.534-98.534-98.534s-98.534 44.202-98.534 98.534zM803.334 60.266h-582.668v775.468h132.8v-34.266c0-87.416 71.118-158.534 158.534-158.534s158.534 71.118 158.534 158.534v34.266h132.8zM964 478h-100.666v354.292c31.166-7.29 100.666-42.23 100.666-127.226zM289.2 512.266v-128.534c0-16.568 13.432-30 30-30h385.6c16.568 0 30 13.432 30 30v128.534c0 16.568-13.432 30-30 30h-385.6c-16.568 0-30-13.432-30-30zM349.2 482.266h325.6v-68.534h-325.6z" />
<glyph unicode="&#xe929;" glyph-name="dress" d="M801.2 960h-128.534c-16.568 0-30-13.432-30-30v-162.8h-261.332v162.8c0 16.568-13.432 30-30 30h-128.566c-87.416 0-158.5-71.132-158.5-158.5v-224.966c0-16.568 13.432-30 30-30h166.322c12.294-11.874 16.798-30.006 10.886-46.572l-97.958-274.292c-29.85-83.564-44.984-170.928-44.984-259.67 0-16.568 13.432-30 30-30h706.934c16.568 0 30 13.432 30 30 0 88.742-15.134 176.108-44.982 259.666l-97.958 274.288c-5.914 16.572-1.41 34.706 10.886 46.58h166.32c16.568 0 30 13.432 30 30v224.966c-0.002 87.446-71.154 158.5-158.534 158.5zM124.268 606.534v194.966c0 22.96 11.782 75.564 68.534 93.776v-228.688c0-21.152 4.802-41.616 13.692-60.054zM771.2 666.586c0-26.208-13.028-50.542-34.846-65.096-0.16-0.108-0.32-0.216-0.476-0.326-39.498-26.632-55.89-76.458-39.856-121.386l97.958-274.292c24.158-67.632 37.868-137.966 40.862-209.488h-645.682c2.994 71.522 16.702 141.856 40.862 209.49l97.96 274.296c16.036 44.93-0.368 94.77-39.886 121.4-0.148 0.102-0.298 0.206-0.448 0.304-21.82 14.554-34.848 38.89-34.848 65.096v233.416h68.534v-162.8c0-16.568 13.432-30 30-30h321.334c16.568 0 30 13.432 30 30v162.8h68.532zM899.732 606.534h-82.224c8.89 18.438 13.692 38.9 13.692 60.054v228.69c56.436-18.114 68.534-70.634 68.534-93.778v-194.966z" />
<glyph unicode="&#xe92a;" glyph-name="delivery-truck" d="M440.224 694.128l61.44 17.92c-6.854 23.472-17.072 45.826-30.336 66.368l-53.792-34.656c9.902-15.372 17.542-32.086 22.688-49.632zM423.616 833.456c-18.428 16-39.054 29.276-61.248 39.424l-26.624-58.176c16.648-7.63 32.122-17.596 45.952-29.6l41.92 48.352zM219.742 386.576c12.010-1.722 24.126-2.588 36.258-2.592 141.32 0.158 255.842 114.68 256 256h-64c0-106.038-85.962-192-192-192s-192 85.962-192 192 85.962 192 192 192c9.142-0.010 18.274-0.652 27.328-1.92l9.088 63.328c-139.954 20.068-269.676-77.118-289.744-217.072s77.116-269.676 217.070-289.744zM224 767.984v-160h128v64h-64v96zM864 639.984h-160v128h-128v-64h64v-465.792c-29.432-17.124-50.828-45.268-59.456-78.208h-201.088c-17.354 68.182-86.696 109.388-154.878 92.034-45.218-11.508-80.526-46.816-92.034-92.034h-68.544v224h-64v-288h132.544c17.354-68.182 86.696-109.388 154.878-92.034 45.218 11.508 80.526 46.816 92.034 92.034h201.088c17.354-68.182 86.696-109.388 154.878-92.034 45.218 11.508 80.526 46.816 92.034 92.034h196.544v384c-0.106 88.322-71.678 159.894-160 160zM256 63.984c-35.346 0-64 28.654-64 64s28.654 64 64 64 64-28.654 64-64c0-35.346-28.654-64-64-64zM704 575.984h64v-160h-64v160zM704 63.984c-35.346 0-64 28.654-64 64s28.654 64 64 64c35.346 0 64-28.654 64-64s-28.654-64-64-64zM960 287.984h-64v-64h64v-64h-132.544c-14.546 56.342-65.266 95.782-123.456 96v96h256v-64zM960 415.984h-128v160h32c53.020 0 96-42.98 96-96v-64z" />
<glyph unicode="&#xe92b;" glyph-name="arrow" d="M835.204 510.453c-11.33 3.243-23.138-3.317-26.377-14.645-3.241-11.328 3.317-23.138 14.643-26.377 97.374-27.849 157.862-68.241 157.862-105.414 0-27.204-33.088-57.065-90.778-81.924-63.471-27.349-153.51-47.36-253.634-56.373l-87.388 1.184c-0.1 0-0.198 0.002-0.297 0.002-11.648 0-21.167-9.363-21.325-21.045-0.16-11.78 9.263-21.461 21.041-21.619l88.489-1.199c0.098 0 0.194-0.002 0.29-0.002 0.634 0 1.265 0.028 1.894 0.083 104.951 9.357 200.062 30.59 267.814 59.785 96.337 41.517 116.559 88.774 116.559 121.109 0 59.612-67.051 111.618-188.796 146.436zM206.675 534.756c-11.78 0-21.333-9.551-21.333-21.333s9.553-21.333 21.333-21.333h87.725v-88.177h-87.725c-11.78 0-21.333-9.551-21.333-21.333s9.553-21.333 21.333-21.333h109.058c11.782 0 21.333 9.551 21.333 21.333v261.687c0 11.782-9.551 21.333-21.333 21.333h-109.058c-11.78 0-21.333-9.551-21.333-21.333s9.553-21.333 21.333-21.333h87.725v-88.177h-87.725zM402.942 361.244h130.846c11.78 0 21.333 9.551 21.333 21.333v130.844c0 11.782-9.551 21.333-21.333 21.333h-109.513v88.179h87.725c11.782 0 21.333 9.551 21.333 21.333s-9.551 21.333-21.333 21.333h-109.058c-11.782 0-21.333-9.551-21.333-21.333v-261.69c0-11.782 9.551-21.333 21.333-21.333zM424.275 492.090h88.179v-88.177h-88.179v88.177zM621.058 361.244h130.846c11.78 0 21.333 9.551 21.333 21.333v261.69c0 11.782-9.553 21.333-21.333 21.333h-130.846c-11.78 0-21.333-9.551-21.333-21.333v-261.69c0-11.782 9.553-21.333 21.333-21.333zM642.391 622.933h88.179v-219.023h-88.179v219.023zM390.095 308.188c-7.61 8.994-21.071 10.118-30.065 2.509-8.996-7.61-10.118-21.069-2.511-30.065l47.714-56.405c-100.685 7.678-191.874 26.131-258.923 52.587-65.867 25.993-103.644 57.775-103.644 87.204 0 34.172 50.637 70.997 135.452 98.509 11.209 3.635 17.346 15.667 13.711 26.876-3.633 11.206-15.669 17.344-26.874 13.711-49.342-16.004-88.469-35.044-116.299-56.589-32.286-25.003-48.657-52.759-48.657-82.507 0-49.289 45.18-93.165 130.65-126.891 69.47-27.411 162.618-46.654 265.015-54.95l-42.547-47.155c-7.893-8.747-7.202-22.238 1.547-30.129 4.079-3.682 9.19-5.495 14.285-5.495 5.826 0 11.633 2.374 15.844 7.042l77.626 86.027c3.537 3.919 5.495 9.011 5.495 14.291v1.63c0 5.045-1.788 9.926-5.045 13.777l-72.774 86.025zM813.683 666.697h87.209c11.78 0 21.333 9.551 21.333 21.333v87.241c0 11.782-9.553 21.333-21.333 21.333h-87.209c-11.78 0-21.333-9.551-21.333-21.333v-87.241c0-11.782 9.553-21.333 21.333-21.333zM835.017 753.937h44.542v-44.574h-44.542v44.574z" />
</font>
</defs>
</svg>
