<?xml version="1.0" encoding="iso-8859-1"?>
<!-- Generator: Adobe Illustrator 19.0.0, SVG Export Plug-In . SVG Version: 6.00 Build 0)  -->
<svg version="1.1" id="Capa_1" xmlns="http://www.w3.org/2000/svg" xmlns:xlink="http://www.w3.org/1999/xlink" x="0px" y="0px"
	 viewBox="0 0 512 512" style="enable-background:new 0 0 512 512;" xml:space="preserve">
<g>
	<g>
		<path d="M485.521,108.208C485.203,108.017,260.583,1.031,260.583,1.031c-2.917-1.375-6.25-1.375-9.167,0
			c0,0-224.621,106.986-224.938,107.177c-3.188,1.927-5.146,5.396-5.146,9.125v256c0,3.823,2.042,7.365,5.375,9.26l223.927,127.958
			c0.004,0.003,0.006,0.008,0.01,0.01c0.004,0.003,0.01,0.001,0.014,0.004l0.048,0.027l0.008-0.013
			c1.632,0.934,3.454,1.419,5.284,1.419c1.833,0,3.646-0.469,5.292-1.406l224-128c3.333-1.896,5.375-5.438,5.375-9.26v-256
			C490.667,113.604,488.708,110.135,485.521,108.208z M256,22.479l84.518,40.249L256,102.974l-84.518-40.246L256,22.479z
			 M128,415.908l-85.333-48.762v-104.18L128,307.664V415.908z M128,283.576l-85.333-44.701V134.958L128,179.66V283.576z
			 M55.862,117.788l90.803-43.241l84.517,40.245l-94.831,45.158L55.862,117.788z M245.333,482.954l-96-54.857V318.839l96,50.286
			V482.954z M245.333,345.038l-96-50.288V190.835l96,50.289V345.038z M256,222.621l-96.012-50.292L256,126.611l96.012,45.719
			L256,222.621z M362.667,428.094l-96,54.854V369.125l96-50.286V428.094z M362.667,294.75l-96,50.288V241.125l96-50.289V294.75z
			 M280.818,114.792l84.517-40.245l90.803,43.241l-80.49,42.161L280.818,114.792z M469.333,367.146L384,415.905V307.664
			l85.333-44.698V367.146z M469.333,238.875L384,283.576V179.66l85.333-44.702V238.875z"/>
	</g>
</g>
<g>
</g>
<g>
</g>
<g>
</g>
<g>
</g>
<g>
</g>
<g>
</g>
<g>
</g>
<g>
</g>
<g>
</g>
<g>
</g>
<g>
</g>
<g>
</g>
<g>
</g>
<g>
</g>
<g>
</g>
</svg>
